<svg xmlns="http://www.w3.org/2000/svg" version="1.1" xmlns:xlink="http://www.w3.org/1999/xlink" xmlns:svgjs="http://svgjs.dev/svgjs" width="1500" height="1500" viewBox="0 0 1500 1500"><rect width="1500" height="1500" fill="#ffffff"></rect><g transform="matrix(0.6666666666666666,0,0,0.6666666666666666,250,250)"><svg viewBox="0 0 280 280" data-background-color="#ffffff" preserveAspectRatio="xMidYMid meet" height="1500" width="1500" xmlns="http://www.w3.org/2000/svg" xmlns:xlink="http://www.w3.org/1999/xlink"><g id="tight-bounds" transform="matrix(1,0,0,1,0,0)"><svg viewBox="0 0 280 280" height="280" width="280"><g><svg viewBox="0 0 280 280" height="280" width="280"><g transform="matrix(1,0,0,1,60.80404050710668,112.6068770247184)"><svg viewBox="0 0 158.39191898578665 54.7862459505632" height="54.7862459505632" width="158.39191898578665"><g><svg viewBox="0 0 158.39191898578665 54.7862459505632" height="54.7862459505632" width="158.39191898578665"><g><svg viewBox="0 0 158.39191898578665 54.7862459505632" height="54.7862459505632" width="158.39191898578665"><g id="textblocktransform"><svg viewBox="0 0 158.39191898578665 54.7862459505632" height="54.7862459505632" width="158.39191898578665" id="textblock"><g><svg viewBox="0 0 158.39191898578665 54.7862459505632" height="54.7862459505632" width="158.39191898578665"><g transform="matrix(1,0,0,1,0,0)"><svg width="158.39191898578665" viewBox="2.85 -39.65 145.98000000000002 50.5" height="54.7862459505632" data-palette-color="#000000"><path d="M15.05-27.15Q18.95-27.15 20.95-23.58 22.95-20 22.95-13.3L22.95-13.3Q22.95-6.8 20.68-3.03 18.4 0.75 14.35 0.75L14.35 0.75Q11.15 0.75 9-2.1L9-2.1 9 10.15 2.85 10.85 2.85-26.45 8.3-26.45 8.55-23.25Q9.85-25.25 11.45-26.2 13.05-27.15 15.05-27.15L15.05-27.15ZM12.7-3.95Q14.6-3.95 15.6-6.13 16.6-8.3 16.6-13.25L16.6-13.25Q16.6-18.45 15.75-20.5 14.9-22.55 13.1-22.55L13.1-22.55Q10.8-22.55 9-19.25L9-19.25 9-6.45Q10.6-3.95 12.7-3.95L12.7-3.95ZM36.95-27.15Q41.95-27.15 44.72-23.65 47.5-20.15 47.5-13.25L47.5-13.25Q47.5-6.65 44.7-2.95 41.9 0.75 36.95 0.75L36.95 0.75Q32 0.75 29.2-2.88 26.4-6.5 26.4-13.25L26.4-13.25Q26.4-19.95 29.2-23.55 32-27.15 36.95-27.15L36.95-27.15ZM36.95-22.5Q34.8-22.5 33.8-20.38 32.8-18.25 32.8-13.25L32.8-13.25Q32.8-8.2 33.8-6.08 34.8-3.95 36.95-3.95L36.95-3.95Q39.1-3.95 40.1-6.08 41.1-8.2 41.1-13.25L41.1-13.25Q41.1-18.3 40.1-20.4 39.1-22.5 36.95-22.5L36.95-22.5ZM63.7-27.1Q64.85-27.1 65.75-26.75L65.75-26.75 64.75-20.85Q63.75-21.1 62.9-21.1L62.9-21.1Q61-21.1 59.9-19.45 58.8-17.8 58.2-14.55L58.2-14.55 58.2 0 52.05 0 52.05-26.45 57.4-26.45 57.85-21.85Q59.7-27.1 63.7-27.1L63.7-27.1ZM79.74-5L81.89-1.2Q79.44 0.75 76.14 0.75L76.14 0.75Q72.69 0.75 70.89-1.23 69.09-3.2 69.09-6.6L69.09-6.6 69.09-22 65.99-22 65.99-26.45 69.09-26.45 69.09-32.3 75.24-33.05 75.24-26.45 80.24-26.45 79.64-22 75.24-22 75.24-6.6Q75.24-4.2 77.29-4.2L77.29-4.2Q77.94-4.2 78.44-4.38 78.94-4.55 79.74-5L79.74-5ZM96.09-27.1Q97.24-27.1 98.14-26.75L98.14-26.75 97.14-20.85Q96.14-21.1 95.29-21.1L95.29-21.1Q93.39-21.1 92.29-19.45 91.19-17.8 90.59-14.55L90.59-14.55 90.59 0 84.44 0 84.44-26.45 89.79-26.45 90.24-21.85Q92.09-27.1 96.09-27.1L96.09-27.1ZM117.89-6.4Q117.89-5.1 118.24-4.48 118.59-3.85 119.39-3.45L119.39-3.45 118.14 0.65Q116.09 0.4 114.86-0.45 113.64-1.3 113.04-3.05L113.04-3.05Q110.74 0.75 106.59 0.75L106.59 0.75Q103.29 0.75 101.34-1.48 99.39-3.7 99.39-7.4L99.39-7.4Q99.39-11.7 102.06-13.95 104.74-16.2 109.84-16.2L109.84-16.2 111.89-16.2 111.89-18.05Q111.89-20.55 111.01-21.58 110.14-22.6 108.19-22.6L108.19-22.6Q105.84-22.6 102.34-21.3L102.34-21.3 100.94-25.3Q102.94-26.2 105.09-26.68 107.24-27.15 109.19-27.15L109.19-27.15Q117.89-27.15 117.89-18.35L117.89-18.35 117.89-6.4ZM108.24-3.7Q110.64-3.7 111.89-7L111.89-7 111.89-12.55 110.44-12.55Q107.89-12.55 106.71-11.4 105.54-10.25 105.54-7.85L105.54-7.85Q105.54-5.8 106.24-4.75 106.94-3.7 108.24-3.7L108.24-3.7ZM123.69-26.45L129.84-26.45 129.84 0 123.69 0 123.69-26.45ZM126.74-39.65Q128.39-39.65 129.41-38.6 130.44-37.55 130.44-35.9L130.44-35.9Q130.44-34.3 129.41-33.25 128.39-32.2 126.74-32.2L126.74-32.2Q125.09-32.2 124.06-33.25 123.04-34.3 123.04-35.9L123.04-35.9Q123.04-37.55 124.06-38.6 125.09-39.65 126.74-39.65L126.74-39.65ZM146.68-5L148.83-1.2Q146.38 0.75 143.08 0.75L143.08 0.75Q139.63 0.75 137.83-1.23 136.03-3.2 136.03-6.6L136.03-6.6 136.03-22 132.93-22 132.93-26.45 136.03-26.45 136.03-32.3 142.18-33.05 142.18-26.45 147.18-26.45 146.58-22 142.18-22 142.18-6.6Q142.18-4.2 144.23-4.2L144.23-4.2Q144.88-4.2 145.38-4.38 145.88-4.55 146.68-5L146.68-5Z" opacity="1" transform="matrix(1,0,0,1,0,0)" fill="#000000" class="wordmark-text-0" data-fill-palette-color="primary" id="text-0"></path></svg></g></svg></g></svg></g></svg></g><g></g></svg></g></svg></g><g id="text-0"><path d="M13.565 93.605c0.664-1.993 2.077-3.198 4.241-3.613 2.17-0.413 4.967-0.049 8.393 1.092v0c3.325 1.107 5.759 2.562 7.303 4.366 1.542 1.81 1.968 3.749 1.279 5.818v0c-0.544 1.634-1.728 2.76-3.553 3.379v0l9.396 3.129-1.039 4.888-28.606-9.524 1.393-4.182 2.523 0.629c-0.801-1.003-1.308-1.995-1.521-2.976-0.213-0.982-0.149-1.984 0.191-3.006zM30.753 101.336c0.323-0.972 0.015-1.898-0.925-2.779-0.946-0.883-2.685-1.745-5.214-2.587v0c-2.656-0.884-4.58-1.283-5.772-1.197-1.19 0.08-1.938 0.581-2.245 1.502v0c-0.393 1.18 0.1 2.51 1.478 3.993v0l9.812 3.267c1.554-0.394 2.509-1.127 2.866-2.199z" fill="#000000" data-fill-palette-color="accent"></path><path d="M40.356 49.234c1.78-2.02 3.871-2.97 6.271-2.849 2.406 0.126 5.003 1.417 7.792 3.874v0c2.669 2.352 4.253 4.753 4.752 7.204 0.499 2.451-0.133 4.677-1.895 6.678v0c-1.763 2.001-3.876 2.921-6.341 2.761-2.464-0.16-5.061-1.442-7.79-3.846v0c-2.709-2.387-4.293-4.788-4.752-7.204-0.454-2.412 0.2-4.618 1.963-6.618zM43.177 51.719c-0.765 0.868-0.898 1.885-0.401 3.05 0.502 1.16 1.763 2.63 3.784 4.41v0c2.04 1.798 3.67 2.875 4.89 3.231 1.219 0.347 2.21 0.086 2.974-0.781v0c0.765-0.868 0.896-1.882 0.395-3.043-0.507-1.165-1.781-2.646-3.822-4.443v0c-2.04-1.798-3.663-2.868-4.866-3.211-1.204-0.343-2.189-0.081-2.954 0.787z" fill="#000000" data-fill-palette-color="accent"></path><path d="M84.818 16.198c0.55-0.283 1.083-0.453 1.6-0.51v0l1.466 4.608c-0.54 0.129-1.013 0.298-1.422 0.508v0c-0.91 0.469-1.424 1.235-1.542 2.298-0.121 1.057 0.076 2.44 0.591 4.15v0l5.386 10.452-4.415 2.275-9.795-19.007 3.847-1.983 2.024 3.142c-0.408-2.969 0.346-4.947 2.26-5.933z" fill="#000000" data-fill-palette-color="accent"></path><path d="M132.205 22.051l2.1 2.836c-1.184 1.205-2.657 1.916-4.419 2.134v0c-1.848 0.229-3.318-0.126-4.413-1.062-1.094-0.937-1.754-2.316-1.979-4.137v0l-1.527-12.352-2.485 0.307-0.442-3.573 2.485-0.308-0.58-4.691 4.865-1.205 0.654 5.286 4.009-0.496-0.044 3.633-3.523 0.436 1.528 12.352c0.159 1.287 0.786 1.862 1.881 1.727v0c0.35-0.043 0.65-0.131 0.902-0.262 0.259-0.126 0.588-0.334 0.988-0.625z" fill="#000000" data-fill-palette-color="accent"></path><path d="M176.594 8.161c0.605 0.129 1.125 0.336 1.561 0.619v0l-1.787 4.493c-0.499-0.243-0.973-0.412-1.421-0.508v0c-1.001-0.214-1.884 0.053-2.649 0.801-0.763 0.741-1.488 1.936-2.174 3.584v0l-2.457 11.499-4.857-1.038 4.469-20.911 4.233 0.905-0.427 3.713c1.566-2.555 3.402-3.607 5.509-3.157z" fill="#000000" data-fill-palette-color="accent"></path><path d="M213.906 44.377c-0.384 0.591-0.589 1.077-0.613 1.457-0.029 0.386 0.08 0.786 0.326 1.199v0l-2.654 2.236c-0.849-0.718-1.43-1.448-1.741-2.189-0.302-0.743-0.33-1.598-0.083-2.564v0c-2.158 1.04-4.174 0.951-6.047-0.266v0c-1.494-0.971-2.354-2.247-2.579-3.828-0.229-1.576 0.2-3.2 1.287-4.873v0c1.261-1.94 2.827-3.027 4.7-3.262 1.869-0.229 3.955 0.405 6.258 1.901v0l1.388 0.902 0.815-1.254c0.732-1.126 1.05-2.049 0.955-2.769-0.086-0.722-0.572-1.371-1.459-1.947v0c-1.059-0.688-2.573-1.251-4.54-1.689v0l0.816-3.324c1.168 0.18 2.307 0.476 3.418 0.889 1.108 0.418 2.105 0.916 2.992 1.492v0c3.931 2.554 4.604 5.819 2.021 9.794v0zM206.176 41.959c1.082 0.703 2.388 0.493 3.918-0.63v0l2.445-3.763-0.978-0.636c-1.154-0.75-2.164-1.038-3.031-0.863-0.867 0.174-1.653 0.805-2.36 1.892v0c-0.601 0.926-0.9 1.727-0.895 2.404 0.01 0.68 0.31 1.213 0.901 1.596z" fill="#000000" data-fill-palette-color="accent"></path><path d="M250.064 57.557l3.005 3.955-17.024 12.938-3.006-3.954zM260.042 53.068c0.539 0.709 0.751 1.455 0.635 2.236-0.116 0.781-0.529 1.442-1.238 1.98v0c-0.683 0.519-1.416 0.73-2.2 0.633-0.784-0.097-1.445-0.501-1.985-1.211v0c-0.539-0.709-0.751-1.455-0.634-2.236 0.116-0.781 0.515-1.431 1.198-1.95v0c0.709-0.539 1.456-0.76 2.24-0.663 0.784 0.097 1.445 0.501 1.984 1.211z" fill="#000000" data-fill-palette-color="accent"></path><path d="M256.714 109.302l-2.402 2.584c-1.402-0.943-2.371-2.261-2.909-3.953v0c-0.564-1.774-0.485-3.285 0.235-4.532 0.72-1.247 1.955-2.149 3.703-2.704v0l11.863-3.768-0.758-2.386 3.432-1.09 0.758 2.386 4.505-1.431 2.077 4.562-5.076 1.612 1.223 3.85-3.579 0.624-1.075-3.384-11.863 3.768c-1.236 0.393-1.686 1.115-1.352 2.167v0c0.107 0.336 0.248 0.615 0.423 0.838 0.171 0.232 0.436 0.517 0.795 0.857z" fill="#000000" data-fill-palette-color="accent"></path><path d="M37.15 183.065c0.782 2.276 0.327 4.359-1.365 6.248-1.686 1.887-4.487 3.503-8.405 4.849v0c-3.804 1.307-7.038 1.676-9.701 1.108-2.665-0.575-4.405-2.047-5.219-4.418v0c-0.642-1.868-0.345-3.716 0.889-5.547v0l-10.743 3.692-2.467-5.185 32.72-11.242 1.643 4.782-2.736 1.183c1.431 0.359 2.584 0.912 3.459 1.659 0.882 0.745 1.523 1.702 1.925 2.871zM16.086 187.993c0.382 1.113 1.312 1.743 2.79 1.889 1.471 0.148 3.653-0.274 6.545-1.269v0c3.043-1.046 5.077-2.022 6.102-2.929 1.03-0.909 1.364-1.892 1.001-2.949v0c-0.462-1.346-1.839-2.212-4.131-2.598v0l-11.224 3.856c-1.143 1.44-1.504 2.774-1.083 4z" fill="#000000" data-fill-palette-color="accent"></path><path d="M59.704 218.742c2.075 2.292 2.884 4.802 2.428 7.529-0.451 2.722-2.259 5.515-5.424 8.379v0c-3.027 2.739-5.968 4.235-8.825 4.488-2.856 0.253-5.312-0.757-7.368-3.03v0c-2.052-2.268-2.83-4.797-2.333-7.587 0.501-2.785 2.3-5.579 5.396-8.38v0c3.071-2.779 6.013-4.276 8.824-4.488 2.816-0.208 5.25 0.822 7.302 3.089zM56.502 221.64c-0.892-0.986-2.031-1.269-3.417-0.848-1.391 0.425-3.233 1.675-5.525 3.749v0c-2.312 2.092-3.749 3.809-4.31 5.151-0.561 1.342-0.396 2.506 0.496 3.492v0c0.892 0.986 2.034 1.267 3.425 0.842 1.391-0.425 3.243-1.683 5.555-3.776v0c2.317-2.097 3.749-3.809 4.295-5.138 0.546-1.328 0.373-2.486-0.519-3.472z" fill="#000000" data-fill-palette-color="accent"></path><path d="M98.013 246.117c0.637 0.318 1.157 0.696 1.562 1.137v0l-3.275 4.485c-0.485-0.413-0.962-0.737-1.432-0.972v0c-1.053-0.526-2.11-0.485-3.172 0.123-1.064 0.613-2.211 1.735-3.44 3.365v0l-6.027 12.074-5.104-2.548 10.957-21.952 4.444 2.218-1.541 4.002c2.472-2.392 4.815-3.036 7.028-1.932z" fill="#000000" data-fill-palette-color="accent"></path><path d="M132.437 275.014l1.583 3.723c-1.643 1.031-3.479 1.43-5.507 1.199v0c-2.121-0.242-3.663-1.033-4.627-2.374-0.965-1.341-1.328-3.056-1.09-5.144v0l1.618-14.189-2.864-0.327 0.468-4.102 2.864 0.326 0.614-5.39 5.738-0.049-0.694 6.084 4.607 0.526-1.012 4.04-4.063-0.463-1.618 14.19c-0.168 1.473 0.379 2.282 1.64 2.425v0c0.403 0.046 0.762 0.033 1.079-0.037 0.323-0.07 0.744-0.216 1.264-0.438z" fill="#000000" data-fill-palette-color="accent"></path><path d="M172.81 250.721c0.695-0.151 1.338-0.182 1.93-0.092v0l0.256 5.547c-0.637-0.018-1.212 0.029-1.725 0.14v0c-1.15 0.25-1.948 0.944-2.395 2.082-0.445 1.145-0.637 2.737-0.575 4.779v0l2.865 13.186-5.575 1.211-5.208-23.975 4.853-1.054 1.306 4.084c0.429-3.413 1.852-5.383 4.268-5.908z" fill="#000000" data-fill-palette-color="accent"></path><path d="M221.496 247.46c0.44 0.674 0.854 1.114 1.242 1.32 0.395 0.203 0.865 0.273 1.412 0.211v0l1.107 3.814c-1.147 0.566-2.182 0.836-3.103 0.81-0.922-0.026-1.832-0.392-2.731-1.1v0c0.095 2.749-0.933 4.824-3.082 6.227v0c-1.709 1.115-3.444 1.426-5.204 0.931-1.766-0.491-3.273-1.695-4.523-3.611v0c-1.453-2.227-1.866-4.375-1.239-6.443 0.624-2.074 2.255-3.972 4.894-5.695v0l1.595-1.041-0.937-1.436c-0.843-1.292-1.665-2.053-2.467-2.285-0.8-0.24-1.704-0.032-2.712 0.626v0c-1.219 0.796-2.514 2.121-3.884 3.976v0l-3.122-2.393c0.734-1.138 1.576-2.196 2.527-3.173 0.954-0.972 1.937-1.788 2.951-2.45v0c4.505-2.939 8.245-2.129 11.22 2.432v0zM215.363 254.45c1.242-0.81 1.631-2.283 1.167-4.417v0l-2.813-4.31-1.127 0.736c-1.32 0.861-2.091 1.789-2.315 2.785-0.218 0.992 0.078 2.109 0.888 3.35v0c0.694 1.064 1.398 1.747 2.112 2.051 0.718 0.31 1.414 0.244 2.088-0.195z" fill="#000000" data-fill-palette-color="accent"></path><path d="M231.529 211.621l3.464-4.533 19.494 14.897-3.464 4.533zM223.525 201.94c0.618-0.808 1.375-1.268 2.271-1.378 0.905-0.112 1.762 0.142 2.57 0.759v0c0.787 0.602 1.246 1.354 1.376 2.257 0.134 0.898-0.108 1.75-0.725 2.558v0c-0.622 0.814-1.383 1.273-2.285 1.38-0.901 0.106-1.745-0.141-2.532-0.743v0c-0.808-0.618-1.28-1.375-1.414-2.273-0.129-0.893 0.117-1.747 0.739-2.56z" fill="#000000" data-fill-palette-color="accent"></path><path d="M270.225 178.043l3.966-0.806c0.681 1.816 0.705 3.695 0.072 5.636v0c-0.661 2.029-1.746 3.382-3.253 4.059-1.507 0.677-3.26 0.689-5.257 0.038v0l-13.579-4.426-0.893 2.741-3.926-1.28 0.893-2.74-5.158-1.681 1.101-5.631 5.822 1.898 1.437-4.41 3.756 1.801-1.267 3.888 13.579 4.426c1.41 0.459 2.311 0.085 2.705-1.122v0c0.126-0.386 0.185-0.74 0.179-1.065-0.004-0.33-0.063-0.772-0.177-1.326z" fill="#000000" data-fill-palette-color="accent"></path><path d="M4.046 141.381c0-6.761 5.48-12.241 12.241-12.241 6.761 0 12.241 5.48 12.241 12.241 0 6.761-5.48 12.241-12.241 12.241-6.761 0-12.241-5.48-12.241-12.241z" fill="#000000" data-fill-palette-color="accent"></path><path d="M255.379 141.381c0-6.761 5.48-12.241 12.241-12.241 6.761 0 12.241 5.48 12.241 12.241 0 6.761-5.48 12.241-12.241 12.241-6.761 0-12.241-5.48-12.241-12.241z" fill="#000000" data-fill-palette-color="accent"></path></g><g id="text-1"></g></svg></g><defs></defs></svg><rect width="280" height="280" fill="none" stroke="none" visibility="hidden"></rect></g></svg></g></svg>